<mxfile host="app.diagrams.net" agent="Mozilla/5.0 (Macintosh; Intel Mac OS X 10_15_7) AppleWebKit/537.36 (KHTML, like Gecko) Chrome/131.0.0.0 Safari/537.36" version="25.0.3">
  <diagram name="Page-1" id="-H_mtQnk-PTXWXPvYvuk">
    <mxGraphModel dx="1442" dy="808" grid="1" gridSize="10" guides="1" tooltips="1" connect="1" arrows="1" fold="1" page="1" pageScale="1" pageWidth="1169" pageHeight="827" math="0" shadow="0">
      <root>
        <mxCell id="0" />
        <mxCell id="1" parent="0" />
        <mxCell id="-V1MjHbGG6LcemzjfV9l-32" value="" style="swimlane;startSize=0;swimlaneFillColor=default;" parent="1" vertex="1">
          <mxGeometry x="880" y="170" width="270" height="230" as="geometry" />
        </mxCell>
        <mxCell id="-V1MjHbGG6LcemzjfV9l-1" value="MongoDB&lt;div&gt;Primary&lt;br&gt;shard1-1&lt;/div&gt;" style="shape=cylinder3;whiteSpace=wrap;html=1;boundedLbl=1;backgroundOutline=1;size=15;" parent="-V1MjHbGG6LcemzjfV9l-32" vertex="1">
          <mxGeometry x="40" y="90" width="60" height="80" as="geometry" />
        </mxCell>
        <mxCell id="-V1MjHbGG6LcemzjfV9l-6" value="MongoDB&lt;div&gt;Secondary&lt;br&gt;shard1-3&lt;/div&gt;" style="shape=cylinder3;whiteSpace=wrap;html=1;boundedLbl=1;backgroundOutline=1;size=15;" parent="-V1MjHbGG6LcemzjfV9l-32" vertex="1">
          <mxGeometry x="190" y="140" width="60" height="80" as="geometry" />
        </mxCell>
        <mxCell id="-V1MjHbGG6LcemzjfV9l-9" value="Replication" style="endArrow=classic;html=1;rounded=0;exitX=1;exitY=0.5;exitDx=0;exitDy=0;exitPerimeter=0;entryX=0;entryY=0.5;entryDx=0;entryDy=0;entryPerimeter=0;" parent="-V1MjHbGG6LcemzjfV9l-32" source="-V1MjHbGG6LcemzjfV9l-1" target="-V1MjHbGG6LcemzjfV9l-6" edge="1">
          <mxGeometry width="50" height="50" relative="1" as="geometry">
            <mxPoint x="80" y="160" as="sourcePoint" />
            <mxPoint x="110" y="110" as="targetPoint" />
          </mxGeometry>
        </mxCell>
        <mxCell id="-V1MjHbGG6LcemzjfV9l-2" value="MongoDB&lt;div&gt;Secondary&lt;br&gt;shard1-2&lt;/div&gt;" style="shape=cylinder3;whiteSpace=wrap;html=1;boundedLbl=1;backgroundOutline=1;size=15;" parent="-V1MjHbGG6LcemzjfV9l-32" vertex="1">
          <mxGeometry x="170" y="20" width="60" height="80" as="geometry" />
        </mxCell>
        <mxCell id="-V1MjHbGG6LcemzjfV9l-4" value="Replication" style="endArrow=classic;html=1;rounded=0;exitX=1;exitY=0.5;exitDx=0;exitDy=0;exitPerimeter=0;entryX=0;entryY=0.5;entryDx=0;entryDy=0;entryPerimeter=0;" parent="-V1MjHbGG6LcemzjfV9l-32" source="-V1MjHbGG6LcemzjfV9l-1" target="-V1MjHbGG6LcemzjfV9l-2" edge="1">
          <mxGeometry width="50" height="50" relative="1" as="geometry">
            <mxPoint x="-30" y="360" as="sourcePoint" />
            <mxPoint x="20" y="310" as="targetPoint" />
          </mxGeometry>
        </mxCell>
        <mxCell id="-V1MjHbGG6LcemzjfV9l-33" value="" style="swimlane;startSize=0;labelBackgroundColor=none;gradientColor=none;swimlaneFillColor=default;fillColor=#000000;" parent="1" vertex="1">
          <mxGeometry x="880" y="460" width="280" height="250" as="geometry" />
        </mxCell>
        <mxCell id="zA23MoTUsTF4_91t8viU-2" value="MongoDB&lt;br&gt;Primary&lt;br&gt;shard2-1" style="shape=cylinder3;whiteSpace=wrap;html=1;boundedLbl=1;backgroundOutline=1;size=15;" parent="-V1MjHbGG6LcemzjfV9l-33" vertex="1">
          <mxGeometry x="20" y="85" width="60" height="80" as="geometry" />
        </mxCell>
        <mxCell id="-V1MjHbGG6LcemzjfV9l-3" value="MongoDB&lt;br&gt;Secondary&lt;br&gt;shard2-2" style="shape=cylinder3;whiteSpace=wrap;html=1;boundedLbl=1;backgroundOutline=1;size=15;" parent="-V1MjHbGG6LcemzjfV9l-33" vertex="1">
          <mxGeometry x="170" y="30" width="60" height="80" as="geometry" />
        </mxCell>
        <mxCell id="-V1MjHbGG6LcemzjfV9l-5" value="Replication" style="endArrow=classic;html=1;rounded=0;exitX=1;exitY=0.5;exitDx=0;exitDy=0;exitPerimeter=0;entryX=0;entryY=0.5;entryDx=0;entryDy=0;entryPerimeter=0;" parent="-V1MjHbGG6LcemzjfV9l-33" source="zA23MoTUsTF4_91t8viU-2" target="-V1MjHbGG6LcemzjfV9l-3" edge="1">
          <mxGeometry width="50" height="50" relative="1" as="geometry">
            <mxPoint x="-70" y="200" as="sourcePoint" />
            <mxPoint x="-20" y="150" as="targetPoint" />
          </mxGeometry>
        </mxCell>
        <mxCell id="-V1MjHbGG6LcemzjfV9l-7" value="MongoDB&lt;div&gt;Secondary&lt;br&gt;shard2-3&lt;/div&gt;" style="shape=cylinder3;whiteSpace=wrap;html=1;boundedLbl=1;backgroundOutline=1;size=15;" parent="-V1MjHbGG6LcemzjfV9l-33" vertex="1">
          <mxGeometry x="170" y="130" width="60" height="80" as="geometry" />
        </mxCell>
        <mxCell id="-V1MjHbGG6LcemzjfV9l-8" value="Replication" style="endArrow=classic;html=1;rounded=0;entryX=0;entryY=0;entryDx=0;entryDy=52.5;entryPerimeter=0;exitX=1;exitY=0.5;exitDx=0;exitDy=0;exitPerimeter=0;" parent="-V1MjHbGG6LcemzjfV9l-33" source="zA23MoTUsTF4_91t8viU-2" target="-V1MjHbGG6LcemzjfV9l-7" edge="1">
          <mxGeometry width="50" height="50" relative="1" as="geometry">
            <mxPoint x="100" y="90" as="sourcePoint" />
            <mxPoint x="160" y="100" as="targetPoint" />
          </mxGeometry>
        </mxCell>
        <mxCell id="-V1MjHbGG6LcemzjfV9l-21" style="edgeStyle=orthogonalEdgeStyle;rounded=0;orthogonalLoop=1;jettySize=auto;html=1;entryX=0.66;entryY=0.975;entryDx=0;entryDy=0;entryPerimeter=0;" parent="1" target="-V1MjHbGG6LcemzjfV9l-14" edge="1">
          <mxGeometry relative="1" as="geometry">
            <mxPoint x="880" y="666" as="sourcePoint" />
            <Array as="points">
              <mxPoint x="739" y="666" />
            </Array>
          </mxGeometry>
        </mxCell>
        <mxCell id="MD7jWdbKySpISGQQD-gj-11" style="edgeStyle=orthogonalEdgeStyle;rounded=0;orthogonalLoop=1;jettySize=auto;html=1;exitX=0.642;exitY=0.033;exitDx=0;exitDy=0;entryX=0.158;entryY=0.967;entryDx=0;entryDy=0;entryPerimeter=0;exitPerimeter=0;" edge="1" parent="1" source="zA23MoTUsTF4_91t8viU-3" target="MD7jWdbKySpISGQQD-gj-7">
          <mxGeometry relative="1" as="geometry" />
        </mxCell>
        <mxCell id="zA23MoTUsTF4_91t8viU-3" value="pymongo-api" style="rounded=1;whiteSpace=wrap;html=1;" parent="1" vertex="1">
          <mxGeometry x="300" y="380" width="120" height="60" as="geometry" />
        </mxCell>
        <mxCell id="zA23MoTUsTF4_91t8viU-4" style="edgeStyle=orthogonalEdgeStyle;rounded=0;orthogonalLoop=1;jettySize=auto;html=1;exitX=1;exitY=0.5;exitDx=0;exitDy=0;entryX=0;entryY=0.25;entryDx=0;entryDy=0;" parent="1" source="zA23MoTUsTF4_91t8viU-3" target="-V1MjHbGG6LcemzjfV9l-12" edge="1">
          <mxGeometry relative="1" as="geometry" />
        </mxCell>
        <mxCell id="-V1MjHbGG6LcemzjfV9l-15" style="edgeStyle=orthogonalEdgeStyle;rounded=0;orthogonalLoop=1;jettySize=auto;html=1;entryX=1;entryY=0.5;entryDx=0;entryDy=0;exitX=0.001;exitY=0.346;exitDx=0;exitDy=0;exitPerimeter=0;" parent="1" source="-V1MjHbGG6LcemzjfV9l-32" target="-V1MjHbGG6LcemzjfV9l-14" edge="1">
          <mxGeometry relative="1" as="geometry">
            <mxPoint x="860" y="260" as="sourcePoint" />
            <Array as="points">
              <mxPoint x="880" y="260" />
              <mxPoint x="860" y="260" />
              <mxPoint x="860" y="230" />
            </Array>
          </mxGeometry>
        </mxCell>
        <mxCell id="-V1MjHbGG6LcemzjfV9l-10" value="Redis" style="shape=cylinder3;whiteSpace=wrap;html=1;boundedLbl=1;backgroundOutline=1;size=15;" parent="1" vertex="1">
          <mxGeometry x="310" y="700" width="60" height="80" as="geometry" />
        </mxCell>
        <mxCell id="-V1MjHbGG6LcemzjfV9l-11" style="edgeStyle=orthogonalEdgeStyle;rounded=0;orthogonalLoop=1;jettySize=auto;html=1;exitX=0;exitY=0.5;exitDx=0;exitDy=0;entryX=0;entryY=0;entryDx=0;entryDy=15;entryPerimeter=0;strokeColor=#00FF00;" parent="1" source="zA23MoTUsTF4_91t8viU-3" target="-V1MjHbGG6LcemzjfV9l-10" edge="1">
          <mxGeometry relative="1" as="geometry">
            <mxPoint x="470" y="480" as="sourcePoint" />
            <mxPoint x="238.70000000000005" y="614.3499999999999" as="targetPoint" />
            <Array as="points">
              <mxPoint x="280" y="410" />
              <mxPoint x="280" y="715" />
            </Array>
          </mxGeometry>
        </mxCell>
        <mxCell id="MD7jWdbKySpISGQQD-gj-19" style="edgeStyle=orthogonalEdgeStyle;rounded=0;orthogonalLoop=1;jettySize=auto;html=1;exitX=1;exitY=0.75;exitDx=0;exitDy=0;entryX=0;entryY=0.75;entryDx=0;entryDy=0;" edge="1" parent="1" source="-V1MjHbGG6LcemzjfV9l-12" target="-V1MjHbGG6LcemzjfV9l-32">
          <mxGeometry relative="1" as="geometry">
            <Array as="points">
              <mxPoint x="670" y="502" />
              <mxPoint x="590" y="502" />
              <mxPoint x="590" y="488" />
              <mxPoint x="780" y="488" />
              <mxPoint x="780" y="342" />
            </Array>
          </mxGeometry>
        </mxCell>
        <mxCell id="MD7jWdbKySpISGQQD-gj-20" style="edgeStyle=orthogonalEdgeStyle;rounded=0;orthogonalLoop=1;jettySize=auto;html=1;exitX=1;exitY=0.5;exitDx=0;exitDy=0;entryX=0;entryY=0.5;entryDx=0;entryDy=0;" edge="1" parent="1" source="-V1MjHbGG6LcemzjfV9l-12" target="-V1MjHbGG6LcemzjfV9l-33">
          <mxGeometry relative="1" as="geometry">
            <Array as="points">
              <mxPoint x="670" y="490" />
              <mxPoint x="775" y="490" />
              <mxPoint x="775" y="585" />
            </Array>
          </mxGeometry>
        </mxCell>
        <mxCell id="-V1MjHbGG6LcemzjfV9l-12" value="Роутер&lt;br&gt;router" style="rounded=1;whiteSpace=wrap;html=1;" parent="1" vertex="1">
          <mxGeometry x="560" y="380" width="110" height="200" as="geometry" />
        </mxCell>
        <mxCell id="-V1MjHbGG6LcemzjfV9l-14" value="Конфигурационный сервер&lt;br&gt;configSrv" style="rounded=1;whiteSpace=wrap;html=1;" parent="1" vertex="1">
          <mxGeometry x="660" y="170" width="120" height="120" as="geometry" />
        </mxCell>
        <mxCell id="-V1MjHbGG6LcemzjfV9l-24" style="edgeStyle=orthogonalEdgeStyle;rounded=0;orthogonalLoop=1;jettySize=auto;html=1;exitX=1;exitY=0.25;exitDx=0;exitDy=0;entryX=0.415;entryY=0.975;entryDx=0;entryDy=0;entryPerimeter=0;" parent="1" source="-V1MjHbGG6LcemzjfV9l-12" target="-V1MjHbGG6LcemzjfV9l-14" edge="1">
          <mxGeometry relative="1" as="geometry" />
        </mxCell>
        <mxCell id="MD7jWdbKySpISGQQD-gj-9" style="edgeStyle=orthogonalEdgeStyle;rounded=0;orthogonalLoop=1;jettySize=auto;html=1;exitX=1;exitY=0.5;exitDx=0;exitDy=0;" edge="1" parent="1" source="MD7jWdbKySpISGQQD-gj-1" target="-V1MjHbGG6LcemzjfV9l-12">
          <mxGeometry relative="1" as="geometry" />
        </mxCell>
        <mxCell id="MD7jWdbKySpISGQQD-gj-1" value="pymongo-api" style="rounded=1;whiteSpace=wrap;html=1;" vertex="1" parent="1">
          <mxGeometry x="300" y="460" width="120" height="60" as="geometry" />
        </mxCell>
        <mxCell id="MD7jWdbKySpISGQQD-gj-10" style="edgeStyle=orthogonalEdgeStyle;rounded=0;orthogonalLoop=1;jettySize=auto;html=1;exitX=1;exitY=0.5;exitDx=0;exitDy=0;entryX=0;entryY=0.75;entryDx=0;entryDy=0;" edge="1" parent="1" source="MD7jWdbKySpISGQQD-gj-2" target="-V1MjHbGG6LcemzjfV9l-12">
          <mxGeometry relative="1" as="geometry" />
        </mxCell>
        <mxCell id="MD7jWdbKySpISGQQD-gj-2" value="pymongo-api" style="rounded=1;whiteSpace=wrap;html=1;" vertex="1" parent="1">
          <mxGeometry x="300" y="530" width="120" height="60" as="geometry" />
        </mxCell>
        <mxCell id="MD7jWdbKySpISGQQD-gj-3" style="edgeStyle=orthogonalEdgeStyle;rounded=0;orthogonalLoop=1;jettySize=auto;html=1;exitX=0;exitY=0.75;exitDx=0;exitDy=0;entryX=0;entryY=0;entryDx=0;entryDy=15;entryPerimeter=0;strokeColor=#00FF00;" edge="1" parent="1" source="MD7jWdbKySpISGQQD-gj-1" target="-V1MjHbGG6LcemzjfV9l-10">
          <mxGeometry relative="1" as="geometry">
            <mxPoint x="370" y="390" as="sourcePoint" />
            <mxPoint x="260" y="610" as="targetPoint" />
          </mxGeometry>
        </mxCell>
        <mxCell id="MD7jWdbKySpISGQQD-gj-8" style="edgeStyle=orthogonalEdgeStyle;rounded=0;orthogonalLoop=1;jettySize=auto;html=1;exitX=0.575;exitY=0;exitDx=0;exitDy=0;entryX=0;entryY=0.5;entryDx=0;entryDy=0;exitPerimeter=0;" edge="1" parent="1" source="MD7jWdbKySpISGQQD-gj-5" target="MD7jWdbKySpISGQQD-gj-7">
          <mxGeometry relative="1" as="geometry" />
        </mxCell>
        <mxCell id="MD7jWdbKySpISGQQD-gj-16" style="edgeStyle=orthogonalEdgeStyle;rounded=0;orthogonalLoop=1;jettySize=auto;html=1;exitX=0.5;exitY=1;exitDx=0;exitDy=0;entryX=0.25;entryY=0;entryDx=0;entryDy=0;" edge="1" parent="1" source="MD7jWdbKySpISGQQD-gj-5" target="zA23MoTUsTF4_91t8viU-3">
          <mxGeometry relative="1" as="geometry" />
        </mxCell>
        <mxCell id="MD7jWdbKySpISGQQD-gj-17" style="edgeStyle=orthogonalEdgeStyle;rounded=0;orthogonalLoop=1;jettySize=auto;html=1;exitX=0.5;exitY=1;exitDx=0;exitDy=0;entryX=0;entryY=0.5;entryDx=0;entryDy=0;" edge="1" parent="1" source="MD7jWdbKySpISGQQD-gj-5" target="MD7jWdbKySpISGQQD-gj-1">
          <mxGeometry relative="1" as="geometry" />
        </mxCell>
        <mxCell id="MD7jWdbKySpISGQQD-gj-18" style="edgeStyle=orthogonalEdgeStyle;rounded=0;orthogonalLoop=1;jettySize=auto;html=1;exitX=0.5;exitY=1;exitDx=0;exitDy=0;entryX=0;entryY=0.25;entryDx=0;entryDy=0;" edge="1" parent="1" source="MD7jWdbKySpISGQQD-gj-5" target="MD7jWdbKySpISGQQD-gj-2">
          <mxGeometry relative="1" as="geometry" />
        </mxCell>
        <mxCell id="MD7jWdbKySpISGQQD-gj-5" value="APISIX Gateway" style="rounded=1;whiteSpace=wrap;html=1;" vertex="1" parent="1">
          <mxGeometry x="210" y="170" width="120" height="60" as="geometry" />
        </mxCell>
        <mxCell id="MD7jWdbKySpISGQQD-gj-6" value="consul kv" style="rounded=1;whiteSpace=wrap;html=1;" vertex="1" parent="1">
          <mxGeometry x="290" y="160" width="70" height="30" as="geometry" />
        </mxCell>
        <mxCell id="MD7jWdbKySpISGQQD-gj-7" value="Consul" style="rounded=1;whiteSpace=wrap;html=1;" vertex="1" parent="1">
          <mxGeometry x="360" y="40" width="120" height="60" as="geometry" />
        </mxCell>
        <mxCell id="MD7jWdbKySpISGQQD-gj-12" style="edgeStyle=orthogonalEdgeStyle;rounded=0;orthogonalLoop=1;jettySize=auto;html=1;exitX=1;exitY=0.25;exitDx=0;exitDy=0;entryX=0.658;entryY=1;entryDx=0;entryDy=0;entryPerimeter=0;" edge="1" parent="1" source="MD7jWdbKySpISGQQD-gj-1" target="MD7jWdbKySpISGQQD-gj-7">
          <mxGeometry relative="1" as="geometry" />
        </mxCell>
        <mxCell id="MD7jWdbKySpISGQQD-gj-13" style="edgeStyle=orthogonalEdgeStyle;rounded=0;orthogonalLoop=1;jettySize=auto;html=1;exitX=1;exitY=0.25;exitDx=0;exitDy=0;entryX=0.908;entryY=1.017;entryDx=0;entryDy=0;entryPerimeter=0;" edge="1" parent="1" source="MD7jWdbKySpISGQQD-gj-2" target="MD7jWdbKySpISGQQD-gj-7">
          <mxGeometry relative="1" as="geometry" />
        </mxCell>
        <mxCell id="MD7jWdbKySpISGQQD-gj-21" style="edgeStyle=orthogonalEdgeStyle;rounded=0;orthogonalLoop=1;jettySize=auto;html=1;exitX=0.75;exitY=1;exitDx=0;exitDy=0;entryX=1;entryY=0;entryDx=0;entryDy=15;entryPerimeter=0;fillColor=#60a917;strokeColor=#2D7600;" edge="1" parent="1" source="MD7jWdbKySpISGQQD-gj-2" target="-V1MjHbGG6LcemzjfV9l-10">
          <mxGeometry relative="1" as="geometry">
            <mxPoint x="360" y="690" as="targetPoint" />
          </mxGeometry>
        </mxCell>
        <mxCell id="MD7jWdbKySpISGQQD-gj-22" value="CDN в регионе 1" style="rounded=1;whiteSpace=wrap;html=1;" vertex="1" parent="1">
          <mxGeometry x="60" y="370" width="120" height="60" as="geometry" />
        </mxCell>
        <mxCell id="MD7jWdbKySpISGQQD-gj-23" value="CDN в регионе 2" style="rounded=1;whiteSpace=wrap;html=1;" vertex="1" parent="1">
          <mxGeometry x="60" y="555" width="120" height="60" as="geometry" />
        </mxCell>
        <mxCell id="MD7jWdbKySpISGQQD-gj-26" value="Кэш" style="rounded=1;whiteSpace=wrap;html=1;" vertex="1" parent="1">
          <mxGeometry x="70" y="330" width="70" height="40" as="geometry" />
        </mxCell>
        <mxCell id="MD7jWdbKySpISGQQD-gj-27" value="Кэш" style="rounded=1;whiteSpace=wrap;html=1;" vertex="1" parent="1">
          <mxGeometry x="60" y="520" width="70" height="40" as="geometry" />
        </mxCell>
        <mxCell id="MD7jWdbKySpISGQQD-gj-28" value="S3" style="ellipse;shape=cloud;whiteSpace=wrap;html=1;align=center;" vertex="1" parent="1">
          <mxGeometry x="180" y="450" width="70" height="80" as="geometry" />
        </mxCell>
        <mxCell id="MD7jWdbKySpISGQQD-gj-29" style="edgeStyle=orthogonalEdgeStyle;rounded=0;orthogonalLoop=1;jettySize=auto;html=1;exitX=1;exitY=0.5;exitDx=0;exitDy=0;entryX=0.55;entryY=0.95;entryDx=0;entryDy=0;entryPerimeter=0;" edge="1" parent="1" source="MD7jWdbKySpISGQQD-gj-23">
          <mxGeometry relative="1" as="geometry">
            <mxPoint x="210" y="585" as="sourcePoint" />
            <mxPoint x="238.5" y="525.9999999999998" as="targetPoint" />
          </mxGeometry>
        </mxCell>
        <mxCell id="MD7jWdbKySpISGQQD-gj-30" style="edgeStyle=orthogonalEdgeStyle;rounded=0;orthogonalLoop=1;jettySize=auto;html=1;exitX=1;exitY=0.5;exitDx=0;exitDy=0;entryX=0.4;entryY=0.1;entryDx=0;entryDy=0;entryPerimeter=0;" edge="1" parent="1" source="MD7jWdbKySpISGQQD-gj-22">
          <mxGeometry relative="1" as="geometry">
            <mxPoint x="210" y="400" as="sourcePoint" />
            <mxPoint x="228" y="458" as="targetPoint" />
          </mxGeometry>
        </mxCell>
        <mxCell id="MD7jWdbKySpISGQQD-gj-33" style="edgeStyle=orthogonalEdgeStyle;rounded=0;orthogonalLoop=1;jettySize=auto;html=1;entryX=0;entryY=0.25;entryDx=0;entryDy=0;exitX=0.096;exitY=1.014;exitDx=0;exitDy=0;exitPerimeter=0;" edge="1" parent="1" source="MD7jWdbKySpISGQQD-gj-39" target="MD7jWdbKySpISGQQD-gj-22">
          <mxGeometry relative="1" as="geometry">
            <mxPoint x="45.05882352941171" y="170" as="sourcePoint" />
            <Array as="points">
              <mxPoint x="20" y="171" />
              <mxPoint x="20" y="385" />
            </Array>
          </mxGeometry>
        </mxCell>
        <mxCell id="MD7jWdbKySpISGQQD-gj-35" style="edgeStyle=orthogonalEdgeStyle;rounded=0;orthogonalLoop=1;jettySize=auto;html=1;entryX=0;entryY=0.5;entryDx=0;entryDy=0;exitX=0.086;exitY=1.014;exitDx=0;exitDy=0;exitPerimeter=0;" edge="1" parent="1" source="MD7jWdbKySpISGQQD-gj-39" target="MD7jWdbKySpISGQQD-gj-23">
          <mxGeometry relative="1" as="geometry">
            <mxPoint x="45.05882352941171" y="170" as="sourcePoint" />
            <Array as="points">
              <mxPoint x="20" y="585" />
            </Array>
          </mxGeometry>
        </mxCell>
        <mxCell id="MD7jWdbKySpISGQQD-gj-38" style="edgeStyle=orthogonalEdgeStyle;rounded=0;orthogonalLoop=1;jettySize=auto;html=1;exitX=1;exitY=0.5;exitDx=0;exitDy=0;entryX=0;entryY=0.5;entryDx=0;entryDy=0;" edge="1" parent="1" source="MD7jWdbKySpISGQQD-gj-39" target="MD7jWdbKySpISGQQD-gj-5">
          <mxGeometry relative="1" as="geometry">
            <mxPoint x="160" y="140" as="sourcePoint" />
          </mxGeometry>
        </mxCell>
        <mxCell id="MD7jWdbKySpISGQQD-gj-39" value="React" style="rounded=1;whiteSpace=wrap;html=1;" vertex="1" parent="1">
          <mxGeometry x="10" y="170" width="120" height="60" as="geometry" />
        </mxCell>
        <mxCell id="MD7jWdbKySpISGQQD-gj-40" value="Actor" style="shape=umlActor;verticalLabelPosition=bottom;verticalAlign=top;html=1;outlineConnect=0;" vertex="1" parent="1">
          <mxGeometry x="70" y="20" width="30" height="60" as="geometry" />
        </mxCell>
        <mxCell id="MD7jWdbKySpISGQQD-gj-41" style="edgeStyle=orthogonalEdgeStyle;rounded=0;orthogonalLoop=1;jettySize=auto;html=1;entryX=0.635;entryY=-0.006;entryDx=0;entryDy=0;entryPerimeter=0;" edge="1" parent="1" source="MD7jWdbKySpISGQQD-gj-40" target="MD7jWdbKySpISGQQD-gj-39">
          <mxGeometry relative="1" as="geometry" />
        </mxCell>
      </root>
    </mxGraphModel>
  </diagram>
</mxfile>
